<mxfile host="app.diagrams.net" modified="2020-09-27T09:40:06.536Z" agent="5.0 (Windows NT 10.0; WOW64) AppleWebKit/537.36 (KHTML, like Gecko) Chrome/70.0.3538.25 Safari/537.36 Core/1.70.3775.400 QQBrowser/10.6.4209.400" etag="eLdz0rcspMcrcMHzfmvB" version="13.7.4" type="github">
  <diagram id="G95XrHZWZxMU3HCit9Vq" name="第 1 页">
    <mxGraphModel dx="1422" dy="767" grid="1" gridSize="10" guides="1" tooltips="1" connect="1" arrows="1" fold="1" page="1" pageScale="1" pageWidth="827" pageHeight="1169" math="0" shadow="0">
      <root>
        <mxCell id="0" />
        <mxCell id="1" parent="0" />
        <mxCell id="aMWxN1FU2IAzIggjEpN3-6" value="" style="edgeStyle=orthogonalEdgeStyle;rounded=0;orthogonalLoop=1;jettySize=auto;html=1;" edge="1" parent="1" source="aMWxN1FU2IAzIggjEpN3-1" target="aMWxN1FU2IAzIggjEpN3-2">
          <mxGeometry relative="1" as="geometry" />
        </mxCell>
        <mxCell id="aMWxN1FU2IAzIggjEpN3-1" value="用户从交互页面输入突发事故数据" style="rounded=1;whiteSpace=wrap;html=1;" vertex="1" parent="1">
          <mxGeometry x="260" y="120" width="280" height="60" as="geometry" />
        </mxCell>
        <mxCell id="aMWxN1FU2IAzIggjEpN3-7" value="" style="edgeStyle=orthogonalEdgeStyle;rounded=0;orthogonalLoop=1;jettySize=auto;html=1;" edge="1" parent="1" source="aMWxN1FU2IAzIggjEpN3-2" target="aMWxN1FU2IAzIggjEpN3-3">
          <mxGeometry relative="1" as="geometry" />
        </mxCell>
        <mxCell id="aMWxN1FU2IAzIggjEpN3-2" value="河道突发性污染事故预测模型计算" style="rounded=1;whiteSpace=wrap;html=1;" vertex="1" parent="1">
          <mxGeometry x="260" y="230" width="280" height="60" as="geometry" />
        </mxCell>
        <mxCell id="aMWxN1FU2IAzIggjEpN3-8" value="" style="edgeStyle=orthogonalEdgeStyle;rounded=0;orthogonalLoop=1;jettySize=auto;html=1;" edge="1" parent="1" source="aMWxN1FU2IAzIggjEpN3-3" target="aMWxN1FU2IAzIggjEpN3-4">
          <mxGeometry relative="1" as="geometry" />
        </mxCell>
        <mxCell id="aMWxN1FU2IAzIggjEpN3-3" value="结果集分类整理、登记、渲染视图" style="rounded=1;whiteSpace=wrap;html=1;" vertex="1" parent="1">
          <mxGeometry x="260" y="340" width="280" height="60" as="geometry" />
        </mxCell>
        <mxCell id="aMWxN1FU2IAzIggjEpN3-4" value="返回数据至交互页面展示" style="rounded=1;whiteSpace=wrap;html=1;" vertex="1" parent="1">
          <mxGeometry x="260" y="450" width="280" height="60" as="geometry" />
        </mxCell>
      </root>
    </mxGraphModel>
  </diagram>
</mxfile>
